<svg version="1.1" viewBox="0.0 0.0 960.0 960.0" fill="none" stroke="none" stroke-linecap="square" stroke-miterlimit="10" xmlns:xlink="http://www.w3.org/1999/xlink" xmlns="http://www.w3.org/2000/svg"><clipPath id="p.0"><path d="m0 0l960.0 0l0 960.0l-960.0 0l0 -960.0z" clip-rule="nonzero"/></clipPath><g clip-path="url(#p.0)"><path fill="#000000" fill-opacity="0.0" d="m0 0l960.0 0l0 960.0l-960.0 0z" fill-rule="evenodd"/><path fill="#b4a7d6" d="m228.4252 471.9475c0 -142.82867 112.63388 -258.6142 251.5748 -258.6142c66.7218 0 130.71082 27.24678 177.89026 75.74635c47.179443 48.499542 73.68457 114.27908 73.68457 182.86783c0 142.82867 -112.63391 258.6142 -251.57483 258.6142c-138.94092 0 -251.5748 -115.78552 -251.5748 -258.6142z" fill-rule="evenodd"/><path stroke="#ffffff" stroke-width="1.0" stroke-linejoin="round" stroke-linecap="butt" d="m228.4252 471.9475c0 -142.82867 112.63388 -258.6142 251.5748 -258.6142c66.7218 0 130.71082 27.24678 177.89026 75.74635c47.179443 48.499542 73.68457 114.27908 73.68457 182.86783c0 142.82867 -112.63391 258.6142 -251.57483 258.6142c-138.94092 0 -251.5748 -115.78552 -251.5748 -258.6142z" fill-rule="evenodd"/><path fill="#ffffff" d="m470.03873 613.09674l11.086609 -256.81888l-153.92126 -39.40158l-11.086609 256.8189z" fill-rule="evenodd"/><path stroke="#000000" stroke-width="1.0" stroke-linejoin="round" stroke-linecap="butt" d="m470.03873 613.09674l11.086609 -256.81888l-153.92126 -39.40158l-11.086609 256.8189z" fill-rule="evenodd"/><path fill="#ffffff" d="m474.3984 613.0968l11.574799 -256.76376l156.33069 -25.53543l-11.574768 256.7638z" fill-rule="evenodd"/><path stroke="#674ea7" stroke-width="1.0" stroke-linejoin="round" stroke-linecap="butt" d="m474.3984 613.0968l11.574799 -256.76376l156.33069 -25.53543l-11.574768 256.7638z" fill-rule="evenodd"/><path fill="#000000" fill-opacity="0.0" d="m362.2651 330.7979l108.6929 0l0 207.30707l-108.6929 0z" fill-rule="evenodd"/><path fill="#000000" d="m371.15573 408.9179l19.796875 -51.546875l7.34375 0l21.09375 51.546875l-7.765625 0l-6.015625 -15.609375l-21.546875 0l-5.65625 15.609375l-7.25 0zm14.875 -21.171875l17.46875 0l-5.375 -14.265625q-2.453125 -6.5 -3.65625 -10.6875q-0.984375 4.953125 -2.78125 9.84375l-5.65625 15.109375z" fill-rule="nonzero"/><path fill="#000000" d="m376.54636 495.3179l0 -51.546875l19.328125 0q5.90625 0 9.46875 1.578125q3.578125 1.5625 5.59375 4.8125q2.03125 3.25 2.03125 6.796875q0 3.3125 -1.796875 6.234375q-1.796875 2.90625 -5.421875 4.703125q4.6875 1.375 7.1875 4.6875q2.515625 3.296875 2.515625 7.796875q0 3.609375 -1.53125 6.734375q-1.515625 3.109375 -3.765625 4.796875q-2.25 1.6875 -5.65625 2.546875q-3.390625 0.859375 -8.3125 0.859375l-19.640625 0zm6.8125 -29.890625l11.140625 0q4.546875 0 6.515625 -0.59375q2.59375 -0.765625 3.90625 -2.5625q1.328125 -1.796875 1.328125 -4.5q0 -2.5625 -1.234375 -4.515625q-1.234375 -1.953125 -3.515625 -2.671875q-2.28125 -0.71875 -7.84375 -0.71875l-10.296875 0l0 15.5625zm0 23.8125l12.828125 0q3.3125 0 4.640625 -0.25q2.359375 -0.421875 3.9375 -1.40625q1.59375 -0.984375 2.609375 -2.859375q1.015625 -1.890625 1.015625 -4.34375q0 -2.890625 -1.484375 -5.015625q-1.46875 -2.125 -4.09375 -2.984375q-2.609375 -0.859375 -7.53125 -0.859375l-11.921875 0l0 17.71875z" fill-rule="nonzero"/><path fill="#000000" d="m413.59323 563.6398l6.828125 1.734375q-2.15625 8.390625 -7.734375 12.8125q-5.5625 4.40625 -13.609375 4.40625q-8.328125 0 -13.5625 -3.390625q-5.21875 -3.390625 -7.9375 -9.828125q-2.71875 -6.4375 -2.71875 -13.8125q0 -8.046875 3.0625 -14.046875q3.078125 -6.0 8.75 -9.109375q5.6875 -3.109375 12.515625 -3.109375q7.734375 0 13.0 3.9375q5.28125 3.9375 7.34375 11.078125l-6.703125 1.578125q-1.796875 -5.625 -5.21875 -8.1875q-3.40625 -2.5625 -8.5625 -2.5625q-5.953125 0 -9.9375 2.84375q-3.984375 2.84375 -5.609375 7.640625q-1.609375 4.796875 -1.609375 9.90625q0 6.5625 1.90625 11.46875q1.921875 4.90625 5.953125 7.34375q4.046875 2.421875 8.765625 2.421875q5.734375 0 9.703125 -3.296875q3.96875 -3.3125 5.375 -9.828125z" fill-rule="nonzero"/><path fill="#000000" fill-opacity="0.0" d="m527.30707 331.36484l432.69293 0l0 281.16537l-432.69293 0z" fill-rule="evenodd"/><path fill="#000000" d="m563.1352 409.48483l-6.328125 0l0 -40.328125q-2.28125 2.1875 -6.0 4.375q-3.703125 2.171875 -6.65625 3.25l0 -6.109375q5.3125 -2.5 9.28125 -6.046875q3.96875 -3.546875 5.625 -6.890625l4.078125 0l0 51.75z" fill-rule="nonzero"/><path fill="#000000" d="m572.55707 489.8067l0 6.078125l-34.0625 0q-0.078125 -2.28125 0.734375 -4.390625q1.296875 -3.484375 4.15625 -6.859375q2.875 -3.375 8.28125 -7.8125q8.40625 -6.890625 11.359375 -10.90625q2.953125 -4.03125 2.953125 -7.609375q0 -3.765625 -2.6875 -6.34375q-2.6875 -2.59375 -7.015625 -2.59375q-4.5625 0 -7.3125 2.75q-2.734375 2.734375 -2.78125 7.59375l-6.5 -0.671875q0.671875 -7.28125 5.03125 -11.09375q4.359375 -3.8125 11.703125 -3.8125q7.421875 0 11.734375 4.109375q4.328125 4.109375 4.328125 10.203125q0 3.09375 -1.265625 6.078125q-1.265625 2.984375 -4.203125 6.296875q-2.921875 3.296875 -9.75 9.0625q-5.6875 4.78125 -7.3125 6.484375q-1.609375 1.703125 -2.671875 3.4375l25.28125 0z" fill-rule="nonzero"/><path fill="#000000" d="m539.3383 568.6754l6.328125 -0.84375q1.078125 5.375 3.703125 7.75q2.625 2.375 6.375 2.375q4.46875 0 7.546875 -3.09375q3.078125 -3.09375 3.078125 -7.65625q0 -4.359375 -2.859375 -7.1875q-2.84375 -2.84375 -7.234375 -2.84375q-1.796875 0 -4.46875 0.703125l0.703125 -5.546875q0.640625 0.0625 1.03125 0.0625q4.03125 0 7.265625 -2.109375q3.234375 -2.109375 3.234375 -6.5q0 -3.484375 -2.359375 -5.765625q-2.34375 -2.28125 -6.078125 -2.28125q-3.6875 0 -6.15625 2.328125q-2.453125 2.3125 -3.15625 6.953125l-6.328125 -1.125q1.15625 -6.359375 5.265625 -9.859375q4.125 -3.5 10.234375 -3.5q4.21875 0 7.765625 1.8125q3.5625 1.8125 5.4375 4.9375q1.890625 3.125 1.890625 6.640625q0 3.34375 -1.796875 6.09375q-1.796875 2.734375 -5.3125 4.34375q4.578125 1.0625 7.109375 4.390625q2.53125 3.3125 2.53125 8.3125q0 6.75 -4.921875 11.453125q-4.921875 4.6875 -12.453125 4.6875q-6.78125 0 -11.265625 -4.046875q-4.484375 -4.046875 -5.109375 -10.484375z" fill-rule="nonzero"/></g></svg>